<svg xmlns="http://www.w3.org/2000/svg" viewBox="0 0 87.498 78.612">
  <g data-name="Group 346">
    <g data-name="Group 345">
      <path data-name="Path 541" d="M82.17.004H5.327A5.334 5.334 0 0 0-.001 5.332v54.284a5.333 5.333 0 0 0 5.328 5.328h29.375l-.806 3.418h-3.823a1.709 1.709 0 0 0-1.658 1.294l-1.709 6.836a1.709 1.709 0 0 0 1.658 2.124h30.762a1.709 1.709 0 0 0 1.658-2.124l-1.709-6.836a1.709 1.709 0 0 0-1.658-1.294h-3.815l-.806-3.418h29.378a5.333 5.333 0 0 0 5.328-5.328V5.332A5.333 5.333 0 0 0 82.17.004ZM5.327 3.422H82.17a1.912 1.912 0 0 1 1.91 1.91V54.69H3.417V5.332a1.912 1.912 0 0 1 1.91-1.91Zm51.614 71.776H30.556l.855-3.418h24.675Zm-6.855-6.836H37.411l.806-3.418h11.062Zm32.084-6.835H5.327a1.912 1.912 0 0 1-1.91-1.91v-1.513H84.08v1.508a1.912 1.912 0 0 1-1.91 1.91Z" fill="#1d79fd"/>
      <path data-name="Path 542" d="M78.954 47.85h-43.92a1.709 1.709 0 0 0 0 3.418h43.92a1.709 1.709 0 0 0 0-3.418Z" fill="#13acfd"/>
      <path data-name="Path 543" d="M65.107 44.433h13.846a1.709 1.709 0 0 0 0-3.418H65.107a1.709 1.709 0 0 0 0 3.418Z" fill="#13acfd"/>
      <path data-name="Path 544" d="M70.234 30.761h8.719a1.709 1.709 0 0 0 0-3.418h-8.719a1.709 1.709 0 0 0 0 3.418Z" fill="#13acfd"/>
      <path data-name="Path 545" d="M70.234 17.089h8.719a1.709 1.709 0 0 0 0-3.418h-8.719a1.709 1.709 0 0 0 0 3.418Z" fill="#13acfd"/>
      <path data-name="Path 546" d="M70.234 10.253h8.719a1.709 1.709 0 0 0 0-3.418h-8.719a1.709 1.709 0 0 0 0 3.418Z" fill="#13acfd"/>
      <path data-name="Path 547" d="M35.888 24.917a8.554 8.554 0 0 0-8.545-8.545c-11.336.469-11.333 16.622 0 17.089a8.554 8.554 0 0 0 8.545-8.544Zm-13.672 0a5.127 5.127 0 1 1 5.127 5.126 5.133 5.133 0 0 1-5.127-5.126Z" fill="#13acfd"/>
      <path data-name="Path 548" d="M16.801 42.006a5.127 5.127 0 1 0 0 3.418h2.147a1.712 1.712 0 0 0 1.209-.5l4.811-4.811a15.441 15.441 0 0 0 14.266-5.445l3.972 3.971a1.708 1.708 0 0 0 1.208.5h5.565a5.127 5.127 0 1 0 0-3.418h-4.857l-3.988-3.988a15.256 15.256 0 0 0 1.5-5.109h3.028a5.127 5.127 0 1 0 0-3.418h-3.028a15.253 15.253 0 0 0-1.694-5.484l4.053-4.053h8.275a5.127 5.127 0 1 0 0-3.418h-8.983a1.711 1.711 0 0 0-1.208.5l-4.1 4.1a15.44 15.44 0 0 0-21.037-2.1 5.554 5.554 0 1 0-4.212 5.023 15.454 15.454 0 0 0 7.5 21.242l-2.982 2.982h-1.445Zm-4.834 3.418a1.709 1.709 0 1 1 1.709-1.709 1.711 1.711 0 0 1-1.713 1.709Zm42.845-9.7a1.709 1.709 0 1 1-1.709 1.709 1.712 1.712 0 0 1 1.705-1.71Zm3.29-25.469a1.709 1.709 0 1 1-1.709 1.709 1.711 1.711 0 0 1 1.708-1.711Zm-7.606 12.954a1.709 1.709 0 1 1-1.709 1.709 1.711 1.711 0 0 1 1.705-1.71ZM10.257 12.391a2.136 2.136 0 1 1 2.137 2.136 2.139 2.139 0 0 1-2.141-2.138Zm5.127 12.527a11.977 11.977 0 0 1 11.963-11.963c15.87.657 15.865 23.271 0 23.926a11.977 11.977 0 0 1-11.963-11.963Z" fill="#1d79fd"/>
      <path data-name="Path 549" d="M27.343 47.85a1.709 1.709 0 1 0 1.71 1.709 1.709 1.709 0 0 0-1.711-1.709Z" fill="#13acfd"/>
    </g>
  </g>
</svg>
