<svg xmlns="http://www.w3.org/2000/svg" width="70.564" height="86.021">
  <g data-name="Grupo 231">
    <g data-name="Grupo 230">
      <path data-name="Trazado 191" d="m70.072 79.794-3.361-3.361a1.68 1.68 0 0 0-1.187-.492V70.9a1.68 1.68 0 0 0-1.681-1.68H52.078v-1.683a1.68 1.68 0 0 0-.492-1.188l-3.361-3.36a1.679 1.679 0 0 0-1.187-.492h-23.52a1.681 1.681 0 0 0-1.188.492l-3.36 3.36a1.681 1.681 0 0 0-.493 1.188v1.68H6.715a1.68 1.68 0 0 0-1.68 1.68v5.04a1.682 1.682 0 0 0-1.188.492l-3.36 3.36a1.68 1.68 0 0 0-.492 1.188v3.36a1.679 1.679 0 0 0 1.68 1.68h67.2a1.68 1.68 0 0 0 1.68-1.68v-3.36a1.68 1.68 0 0 0-.492-1.187Zm-7.909-7.213v3.356h-23.1l3.034-3.361Zm-53.764 0H20.16a1.681 1.681 0 0 0 1.681-1.68v-2.664l2.376-2.377h22.128l2.376 2.377v.984h-7.372a1.682 1.682 0 0 0-1.247.554l-5.567 6.167H8.399Zm58.8 10.081H3.355v-.984l2.376-2.376h59.093l2.376 2.376Z" fill="#1d79fd"/>
      <path data-name="Trazado 192" d="M27.909 69.217a1.68 1.68 0 1 0 1.681 1.68 1.679 1.679 0 0 0-1.682-1.68Z" fill="#1d79fd"/>
      <path data-name="Trazado 193" d="M36.962 23.022v15.52a1.681 1.681 0 0 0 2.521 1.455l13.441-7.76a1.681 1.681 0 0 0 .84-1.455V15.261a1.68 1.68 0 0 0-2.52-1.455l-13.441 7.76a1.681 1.681 0 0 0-.841 1.456Zm3.361.97 10.08-5.82v11.64l-10.08 5.82Z" fill="#1d79fd"/>
      <path data-name="Trazado 194" d="m21.001 10.895 13.441 7.76a1.681 1.681 0 0 0 1.681 0l13.44-7.76a1.687 1.687 0 0 0 0-2.91L36.117.225a1.679 1.679 0 0 0-1.68 0L20.996 7.986a1.688 1.688 0 0 0 0 2.91ZM35.282 3.62l10.081 5.82-10.081 5.82-10.081-5.82Z" fill="#1d79fd"/>
      <path data-name="Trazado 195" d="m17.641 32.236 13.441 7.76a1.68 1.68 0 0 0 2.521-1.455V23.022a1.681 1.681 0 0 0-.84-1.456l-13.441-7.76a1.68 1.68 0 0 0-2.521 1.455v15.521a1.681 1.681 0 0 0 .84 1.454Zm2.521-14.065 10.08 5.82v11.64l-10.08-5.82Z" fill="#1d79fd"/>
      <path data-name="Trazado 196" d="m7.054 23 8.9 33.222a1.68 1.68 0 0 0 3.245-.87l-8.9-33.222a1.68 1.68 0 0 0-3.246.87Z" fill="#13acfd"/>
      <path data-name="Trazado 197" d="M52.55 57.409a1.682 1.682 0 0 0 2.057-1.188l10.859-40.525a1.68 1.68 0 1 0-3.246-.87L51.362 55.352a1.68 1.68 0 0 0 1.188 2.057Z" fill="#13acfd"/>
      <path data-name="Trazado 198" d="M28.449 44.11a1.679 1.679 0 0 0-1.526 1.82l.879 10a1.68 1.68 0 1 0 3.347-.294l-.879-10a1.681 1.681 0 0 0-1.821-1.526Z" fill="#13acfd"/>
      <path data-name="Trazado 199" d="m40.293 45.635-.879 10a1.68 1.68 0 1 0 3.347.294l.879-10a1.68 1.68 0 0 0-3.347-.294Z" fill="#13acfd"/>
      <path data-name="Trazado 200" d="M6.719 16.942a1.68 1.68 0 0 0 0-3.361 1.68 1.68 0 0 0 0 3.361Z" fill="#13acfd"/>
    </g>
  </g>
</svg>
