<svg xmlns="http://www.w3.org/2000/svg" width="89.513" height="89.484">
  <g data-name="Grupo 233">
    <g data-name="Grupo 232">
      <path data-name="Trazado 201" d="m68.643 60.629-1.685-2.008 3.307-7.983 2.612-.229a1.748 1.748 0 0 0 1.6-1.742v-7.849a1.748 1.748 0 0 0-1.6-1.741l-2.612-.229-3.307-7.983 1.685-2.008a1.749 1.749 0 0 0-.1-2.361l-5.549-5.55a1.75 1.75 0 0 0-2.362-.1l-2.008 1.685-7.983-3.307-.229-2.612a1.749 1.749 0 0 0-1.742-1.6h-7.848a1.748 1.748 0 0 0-1.742 1.6l-.229 2.612-7.983 3.307-2.009-1.685a1.748 1.748 0 0 0-2.36.1l-5.549 5.55a1.749 1.749 0 0 0-.1 2.361l1.685 2.008-3.307 7.983-2.612.229a1.749 1.749 0 0 0-1.6 1.741v7.849a1.749 1.749 0 0 0 1.6 1.742l2.612.229 3.307 7.983-1.685 2.008a1.748 1.748 0 0 0 .1 2.361l5.549 5.55a1.749 1.749 0 0 0 2.36.1l2.009-1.685 7.983 3.307.229 2.612a1.749 1.749 0 0 0 1.742 1.6h7.848a1.749 1.749 0 0 0 1.742-1.6l.229-2.612 7.983-3.307 2.008 1.685a1.75 1.75 0 0 0 2.362-.1l5.549-5.55a1.748 1.748 0 0 0 .1-2.361Zm-6.993 4.3-1.594-1.337a1.749 1.749 0 0 0-1.794-.276l-9.944 4.118a1.751 1.751 0 0 0-1.073 1.464l-.182 2.072h-4.642l-.182-2.072a1.751 1.751 0 0 0-1.073-1.464l-9.944-4.118a1.75 1.75 0 0 0-1.794.276l-1.594 1.337-3.283-3.283 1.338-1.594a1.749 1.749 0 0 0 .275-1.794l-4.118-9.944a1.75 1.75 0 0 0-1.463-1.073l-2.073-.181v-4.643l2.073-.182a1.746 1.746 0 0 0 1.463-1.073l4.118-9.944a1.749 1.749 0 0 0-.275-1.794l-1.338-1.594 3.283-3.283 1.594 1.338a1.75 1.75 0 0 0 1.794.276l9.944-4.119a1.749 1.749 0 0 0 1.073-1.463l.182-2.073h4.643l.181 2.073a1.75 1.75 0 0 0 1.073 1.463l9.944 4.119a1.749 1.749 0 0 0 1.794-.276l1.594-1.338 3.283 3.283-1.338 1.594a1.749 1.749 0 0 0-.275 1.794l4.118 9.944a1.746 1.746 0 0 0 1.463 1.073l2.073.182v4.643l-2.073.181a1.75 1.75 0 0 0-1.463 1.073l-4.118 9.944a1.749 1.749 0 0 0 .275 1.802l1.338 1.594Z" fill="#1d79fd"/>
      <path data-name="Trazado 202" d="M44.741 26.693a18.028 18.028 0 0 0-15.947 9.591 1.749 1.749 0 0 0 3.089 1.641 14.548 14.548 0 0 1 7.061-6.533c-3.743 6.948-3.809 19.383-.329 26.556a14.56 14.56 0 0 1-6.732-6.387 1.749 1.749 0 0 0-3.089 1.641 18.025 18.025 0 0 0 14.553 9.537 5.024 5.024 0 0 0 2.788 0c22.887-2.563 21.7-35.222-1.393-36.046Zm14.448 16.3h-5.82a28.6 28.6 0 0 0-2.828-11.6 14.592 14.592 0 0 1 8.647 11.6Zm-9.318 0H39.612c.417-7.665 3.18-12.453 5.13-12.453s4.712 4.789 5.13 12.454Zm-10.283 3.5h10.307c-.29 7.129-2.6 11.881-4.511 12.789-.426.018-.859.018-1.285 0-1.91-.91-4.221-5.662-4.51-12.791ZM50.87 57.942a30.09 30.09 0 0 0 2.522-11.449h5.8a14.589 14.589 0 0 1-8.321 11.447Z" fill="#13acfd"/>
      <path data-name="Trazado 203" d="M44.742 10.465a5.247 5.247 0 1 0-5.246-5.245 5.253 5.253 0 0 0 5.246 5.245Zm0-6.995a1.749 1.749 0 1 1-1.748 1.749 1.75 1.75 0 0 1 1.748-1.749Z" fill="#1d79fd"/>
      <path data-name="Trazado 204" d="M84.266 39.495a5.247 5.247 0 1 0 5.246 5.246 5.253 5.253 0 0 0-5.246-5.246Zm0 7a1.749 1.749 0 1 1 1.748-1.749 1.75 1.75 0 0 1-1.748 1.744Z" fill="#1d79fd"/>
      <path data-name="Trazado 205" d="M44.742 79.019a5.247 5.247 0 1 0 5.248 5.246 5.253 5.253 0 0 0-5.248-5.246Zm0 7a1.749 1.749 0 1 1 1.749-1.749 1.75 1.75 0 0 1-1.749 1.749Z" fill="#1d79fd"/>
      <path data-name="Trazado 206" d="M10.465 44.743a5.247 5.247 0 1 0-5.246 5.247 5.252 5.252 0 0 0 5.246-5.247Zm-6.994 0a1.749 1.749 0 1 1 1.748 1.749 1.75 1.75 0 0 1-1.748-1.749Z" fill="#1d79fd"/>
      <path data-name="Trazado 207" d="M8.766 22.904a5.255 5.255 0 0 0 4.946-3.5h3.222l1.4 1.4a1.75 1.75 0 0 0 2.474-2.474l-1.914-1.913a1.749 1.749 0 0 0-1.236-.513h-3.946a5.246 5.246 0 1 0-4.946 7Zm0-7a1.749 1.749 0 1 1-1.749 1.749 1.751 1.751 0 0 1 1.749-1.745Z" fill="#1d79fd"/>
      <path data-name="Trazado 208" d="M80.719 66.581a5.254 5.254 0 0 0-4.946 3.5h-3.219l-1.4-1.4a1.749 1.749 0 0 0-2.473 2.473l1.914 1.914a1.749 1.749 0 0 0 1.236.513h3.946a5.246 5.246 0 1 0 4.946-7Zm0 7a1.749 1.749 0 1 1 1.749-1.749 1.752 1.752 0 0 1-1.749 1.744Z" fill="#1d79fd"/>
      <path data-name="Trazado 209" d="M69.913 21.32a1.743 1.743 0 0 0 1.236-.512l1.4-1.4h3.222a5.246 5.246 0 1 0 0-3.5h-3.946a1.748 1.748 0 0 0-1.236.513l-1.914 1.913a1.749 1.749 0 0 0 1.237 2.986Zm10.806-5.411a1.749 1.749 0 1 1-1.749 1.749 1.751 1.751 0 0 1 1.749-1.75Z" fill="#1d79fd"/>
      <path data-name="Trazado 210" d="m18.335 68.677-1.4 1.4h-3.222a5.246 5.246 0 1 0 0 3.5h3.946a1.749 1.749 0 0 0 1.236-.513l1.914-1.914a1.749 1.749 0 1 0-2.473-2.473Zm-9.569 4.9a1.749 1.749 0 1 1 1.748-1.749 1.752 1.752 0 0 1-1.748 1.749Z" fill="#1d79fd"/>
      <path data-name="Trazado 211" d="M30.191 44.742a1.749 1.749 0 1 0-1.749 1.749 1.748 1.748 0 0 0 1.749-1.749Z" fill="#13acfd"/>
    </g>
  </g>
</svg>
