<svg xmlns="http://www.w3.org/2000/svg" width="20.097" height="16.329"><path data-name="Trazado 138" d="M20.1 1.933a8.59 8.59 0 0 1-2.374.651A4.1 4.1 0 0 0 19.539.307a8.234 8.234 0 0 1-2.613 1A4.12 4.12 0 0 0 9.8 4.121a4.242 4.242 0 0 0 .1.94A11.662 11.662 0 0 1 1.4.751a4.121 4.121 0 0 0 1.266 5.507A4.069 4.069 0 0 1 .8 5.75v.05a4.139 4.139 0 0 0 3.3 4.048 4.112 4.112 0 0 1-1.08.136 3.643 3.643 0 0 1-.78-.07 4.159 4.159 0 0 0 3.85 2.87 8.279 8.279 0 0 1-5.104 1.753A7.717 7.717 0 0 1 0 14.48a11.6 11.6 0 0 0 6.321 1.849A11.646 11.646 0 0 0 18.047 4.6c0-.182-.006-.358-.015-.533A8.219 8.219 0 0 0 20.1 1.933Z" fill="#fff"/></svg>