<svg xmlns="http://www.w3.org/2000/svg" width="77.454" height="86.191"><g data-name="Group 350"><g data-name="Group 349"><path data-name="Path 560" d="M77.454 51.155a14.714 14.714 0 0 0-6.391-12.2 13.068 13.068 0 0 0-3.442-19.205 10.427 10.427 0 0 0-12.28-12.185 9.252 9.252 0 0 0-16.634-3.67 9.252 9.252 0 0 0-16.628 3.67A10.427 10.427 0 0 0 9.799 19.75a13.067 13.067 0 0 0-3.442 19.205c-9.174 6.149-8.235 20.493 1.673 25.4a13.01 13.01 0 0 0 9.755 13.695 11.586 11.586 0 0 0 20.928 2.629 11.586 11.586 0 0 0 20.928-2.629 13.082 13.082 0 0 0 9.755-13.695 14.759 14.759 0 0 0 8.063-13.2ZM19.979 10.723a6.947 6.947 0 0 1 2.933.642 1.685 1.685 0 0 0 2.391-1.53v-.627a5.863 5.863 0 0 1 11.725 0v6.068h-2.607a5.054 5.054 0 1 0 0 3.369h2.607v8.781H26.756a5.081 5.081 0 0 0-5.689-3.285l-2.529-4.38a1.684 1.684 0 0 0-1.458-.842h-4.008a7.034 7.034 0 0 1 6.907-8.196ZM31.34 16.96a1.685 1.685 0 1 1-1.685-1.684 1.687 1.687 0 0 1 1.681 1.689Zm-9.35 10.465a1.685 1.685 0 1 1-1.684 1.685 1.687 1.687 0 0 1 1.679-1.685Zm6.85 55.435a8.2 8.2 0 0 1-8.028-6.576 1.687 1.687 0 0 0-1.381-1.334 9.6 9.6 0 0 1-8.067-9.926h11.259l2.044 3.541a5.051 5.051 0 1 0 2.916-1.688l-2.529-4.379a1.683 1.683 0 0 0-1.459-.843H10.199a11.4 11.4 0 0 1-6.746-8.815h3.535a5.054 5.054 0 1 0 0-3.369H3.452a11.368 11.368 0 0 1 5.978-8.444h10.669l2.044 3.54a5.062 5.062 0 0 0 4.764 8.251l2.529 4.38a1.684 1.684 0 0 0 1.459.842h6.129v16.633a8.2 8.2 0 0 1-8.188 8.188Zm-.334-12.7a1.685 1.685 0 1 1-1.684 1.685 1.687 1.687 0 0 1 1.679-1.68ZM10.073 51.153a1.685 1.685 0 1 1 1.685 1.684 1.687 1.687 0 0 1-1.69-1.682Zm15.915-1.622a1.685 1.685 0 1 1 1.685-1.685 1.687 1.687 0 0 1-1.694 1.687Zm41.017 12.213a1.206 1.206 0 0 0-.077.029 11.467 11.467 0 0 1-7.259.445 1.684 1.684 0 1 0-.871 3.254 14.842 14.842 0 0 0 7.272.1 9.59 9.59 0 0 1-8.031 9.366l-.047.007a9.683 9.683 0 0 1-4.052-.2A1.685 1.685 0 1 0 53.069 78a13.051 13.051 0 0 0 2.79.43 8.2 8.2 0 0 1-15.461-3.761V50.685a1.685 1.685 0 0 0-3.369 0v3.986h-5.156l-2.044-3.54a5.062 5.062 0 0 0-4.764-8.251l-2.529-4.38a1.684 1.684 0 0 0-1.458-.842H9.702a9.68 9.68 0 0 1 2.46-15.369h3.945l2.044 3.54a5.053 5.053 0 1 0 8.605 4.966h10.272v4.728a1.685 1.685 0 0 0 3.369 0V9.208A5.864 5.864 0 0 1 52.11 8.83a10.312 10.312 0 0 0-3.652 3.713 1.685 1.685 0 0 0 2.918 1.684 6.969 6.969 0 0 1 3.135-2.86l.054-.027a7.028 7.028 0 0 1 9.516 8.646l-.022.06a7.011 7.011 0 0 1-3.111 3.755 1.685 1.685 0 0 0 1.684 2.918 10.383 10.383 0 0 0 3.767-3.745 9.682 9.682 0 0 1 1.619 14.37 14.782 14.782 0 0 0-1.549-.508 1.684 1.684 0 1 0-.872 3.254 11.464 11.464 0 0 1 2.055.769c.024.011.048.023.073.033 8.776 4.271 8.318 17.2-.721 20.855Z" fill="#1d79fd"/><path data-name="Path 561" d="M55.642 20.607a1.684 1.684 0 0 0-2.382-2.382 5.229 5.229 0 0 1-7.361 0 1.685 1.685 0 0 0-2.382 2.382 8.614 8.614 0 0 0 12.125 0Z" fill="#0033D3"/><path data-name="Path 562" d="M52.445 54.819a7.261 7.261 0 0 0-5.133 8.892 1.685 1.685 0 0 0 3.255-.872 3.909 3.909 0 0 1 2.75-4.765 1.685 1.685 0 0 0-.871-3.255Z" fill="#0033D3"/><path data-name="Path 563" d="M57.668 32.314a1.686 1.686 0 0 0-2.383 0 8.615 8.615 0 0 0 0 12.126 1.685 1.685 0 1 0 2.383-2.383 5.228 5.228 0 0 1 0-7.361 1.685 1.685 0 0 0 0-2.382Z" fill="#0033D3"/><path data-name="Path 564" d="M38.707 41.419a1.685 1.685 0 1 0 1.685 1.685 1.684 1.684 0 0 0-1.685-1.685Z" fill="#0033D3"/></g></g></svg>