<svg xmlns="http://www.w3.org/2000/svg" width="76.746" height="76.747">
  <g data-name="Grupo 235">
    <g data-name="Grupo 234">
      <path data-name="Trazado 212" d="M75.247 66.254h-1.5v-41.97a4.5 4.5 0 0 0-4.5-4.5H7.495a4.5 4.5 0 0 0-4.5 4.5v41.97h-1.5a1.5 1.5 0 0 0-1.5 1.5v4.5a4.5 4.5 0 0 0 4.5 4.5h67.753a4.5 4.5 0 0 0 4.5-4.5v-4.5a1.5 1.5 0 0 0-1.501-1.5ZM5.996 24.284a1.5 1.5 0 0 1 1.5-1.5h61.756a1.5 1.5 0 0 1 1.5 1.5v1.5H45.12a1.5 1.5 0 0 0 0 3h25.632v31.478H5.998V28.781h25.631a1.5 1.5 0 0 0 0-3H5.998Zm0 38.972H70.75v3H47.367a1.5 1.5 0 0 0-1.5 1.5h-14.99a1.5 1.5 0 0 0-1.5-1.5H5.994Zm67.752 8.994a1.5 1.5 0 0 1-1.5 1.5H4.495a1.5 1.5 0 0 1-1.5-1.5v-3h25.29a3 3 0 0 0 2.6 1.5h14.99a3 3 0 0 0 2.6-1.5H73.76Z" fill="#1d79fd"/>
      <path data-name="Trazado 213" d="M4.496 11.352a4.5 4.5 0 0 0 4.24-3h4.26l7.995 7.995a1.5 1.5 0 1 0 2.12-2.12l-8.434-8.434a1.5 1.5 0 0 0-1.06-.439H8.736a4.5 4.5 0 1 0-4.24 6Zm0-6a1.5 1.5 0 1 1-1.5 1.5 1.5 1.5 0 0 1 1.5-1.496Z" fill="#1d79fd"/>
      <path data-name="Trazado 214" d="M54.695 16.789a1.493 1.493 0 0 0 1.06-.439l7.995-7.995h4.26a4.5 4.5 0 1 0 0-3h-4.881a1.5 1.5 0 0 0-1.06.439l-8.434 8.434a1.5 1.5 0 0 0 1.06 2.559ZM72.25 5.356a1.5 1.5 0 1 1-1.5 1.5 1.5 1.5 0 0 1 1.504-1.5Z" fill="#1d79fd"/>
      <path data-name="Trazado 215" d="M32.49 16.789h11.767a1.5 1.5 0 0 0 0-3h-4.384V8.735a4.5 4.5 0 1 0-3 0v5.054h-4.385a1.5 1.5 0 0 0 .002 3Zm5.883-13.791a1.5 1.5 0 1 1-1.5 1.5 1.5 1.5 0 0 1 1.5-1.5Z" fill="#1d79fd"/>
      <path data-name="Trazado 216" d="m42.87 46.9-3.747-2.164a1.5 1.5 0 0 0-1.5 0L33.876 46.9a1.5 1.5 0 0 0-.75 1.3v4.327a1.5 1.5 0 0 0 .75 1.3l3 1.731a1.5 1.5 0 0 0 3 0l3-1.731a1.5 1.5 0 0 0 .75-1.3V48.2a1.5 1.5 0 0 0-.75-1.3Zm-2.248 4.759-2.249 1.3-2.249-1.3v-2.6l2.249-1.3 2.249 1.3Z" fill="#13acfd"/>
      <path data-name="Trazado 217" d="m40.622 42.14 3.747 2.164a1.5 1.5 0 0 0 1.5 0l3.747-2.164a1.5 1.5 0 0 0 .749-1.3v-4.327a1.5 1.5 0 0 0-.749-1.3l-3-1.731a1.5 1.5 0 0 0-3 0l-3 1.731a1.5 1.5 0 0 0-.749 1.3v4.327a1.5 1.5 0 0 0 .749 1.3Zm2.249-4.759 2.248-1.3 2.249 1.3v2.6l-2.249 1.3-2.248-1.3Z" fill="#13acfd"/>
      <path data-name="Trazado 218" d="M31.628 32.013a1.5 1.5 0 0 0-1.5 1.472l-3 1.731a1.5 1.5 0 0 0-.749 1.3v4.327a1.5 1.5 0 0 0 .749 1.3l3.747 2.164a1.5 1.5 0 0 0 1.5 0l3.748-2.164a1.5 1.5 0 0 0 .75-1.3v-4.327a1.5 1.5 0 0 0-.75-1.3l-3-1.731a1.5 1.5 0 0 0-1.5-1.472Zm2.248 7.962-2.248 1.3-2.249-1.3v-2.6l2.249-1.3 2.248 1.3Z" fill="#13acfd"/>
      <path data-name="Trazado 219" d="M11.993 35.676h8.912a1.5 1.5 0 0 0 0-3h-8.912a1.5 1.5 0 0 0 0 3Z" fill="#1373fd"/>
      <path data-name="Trazado 220" d="M11.993 42.568h8.912a1.5 1.5 0 0 0 0-3h-8.912a1.5 1.5 0 0 0 0 3Z" fill="#1373fd"/>
      <path data-name="Trazado 221" d="M11.993 49.466h11.985a1.5 1.5 0 0 0 0-3H11.993a1.5 1.5 0 0 0 0 3Z" fill="#1373fd"/>
      <path data-name="Trazado 222" d="M26.975 53.363H11.992a1.5 1.5 0 0 0 0 3h14.983a1.5 1.5 0 0 0 0-3Z" fill="#1373fd"/>
      <path data-name="Trazado 223" d="M55.843 35.676h8.911a1.5 1.5 0 0 0 0-3h-8.911a1.5 1.5 0 0 0 0 3Z" fill="#1373fd"/>
      <path data-name="Trazado 224" d="M55.843 42.568h8.911a1.5 1.5 0 0 0 0-3h-8.911a1.5 1.5 0 0 0 0 3Z" fill="#1373fd"/>
      <path data-name="Trazado 225" d="M52.769 49.466h11.985a1.5 1.5 0 0 0 0-3H52.769a1.5 1.5 0 0 0 0 3Z" fill="#1373fd"/>
      <path data-name="Trazado 226" d="M64.756 53.363H49.773a1.5 1.5 0 0 0 0 3h14.983a1.5 1.5 0 0 0 0-3Z" fill="#1373fd"/>
      <path data-name="Trazado 227" d="M38.373 28.781a1.5 1.5 0 0 0 0-3 1.5 1.5 0 0 0 0 3Z" fill="#13acfd"/>
    </g>
  </g>
</svg>
