<svg data-name="Group 347" xmlns="http://www.w3.org/2000/svg" viewBox="0 0 92.292 92.255">
  <path data-name="Path 551" d="M90.498 44.325h-3.357l-2.059-3.566a1.8 1.8 0 0 0-1.562-.9h-4.121L68.209 20.47l2.062-3.57a1.8 1.8 0 0 0 0-1.8l-2.064-3.574 1.677-2.9a1.802 1.802 0 1 0-3.122-1.8l-1.679 2.908h-4.117a1.8 1.8 0 0 0-1.562.9l-2.061 3.57H34.957l-2.061-3.57a1.8 1.8 0 0 0-1.562-.9h-4.126l-1.677-2.9a1.802 1.802 0 1 0-3.123 1.8l1.68 2.908-2.06 3.566a1.8 1.8 0 0 0 0 1.8l2.062 3.569-11.2 19.385H8.768a1.8 1.8 0 0 0-1.562.9l-2.063 3.573H1.789a1.803 1.803 0 0 0 0 3.606h3.357l2.059 3.566a1.8 1.8 0 0 0 1.562.9h4.122l11.19 19.388-2.061 3.571a1.8 1.8 0 0 0 0 1.8l2.063 3.573-1.677 2.9a1.802 1.802 0 0 0 3.123 1.8l1.679-2.908h4.117a1.8 1.8 0 0 0 1.562-.9l2.061-3.57h22.386l2.061 3.569a1.8 1.8 0 0 0 1.562.9h4.126l1.677 2.9a1.802 1.802 0 0 0 3.122-1.8l-1.679-2.907 2.059-3.567a1.8 1.8 0 0 0 0-1.8l-2.061-3.57 11.195-19.384h4.122a1.8 1.8 0 0 0 1.562-.9l2.063-3.573h3.354a1.803 1.803 0 0 0 0-3.606ZM65.079 69.987h-3.081l-2.585-4.477 10.15-17.579h5.17l1.543 2.672ZM34.95 74.454l-1.541-2.668 2.583-4.474h20.3l2.585 4.477-1.541 2.669Zm-7.745-4.471L16.016 50.595l1.538-2.665h5.166l10.15 17.579-2.583 4.473Zm.007-47.715h3.073l2.584 4.477-1.018 1.763a1.802 1.802 0 0 0 3.123 1.8l1.018-1.762h20.3l10.15 17.579-10.15 17.578h-20.3L25.841 46.128l1.018-1.762a1.802 1.802 0 0 0-3.123-1.8l-1.018 1.762h-5.161l-1.543-2.672Zm30.13-4.467 1.536 2.661-2.587 4.481h-20.3l-2.581-4.47 1.545-2.676Zm7.744 4.471 11.19 19.388-1.539 2.665h-5.174l-10.15-17.579 2.583-4.473Zm-3.081-8.942h3.081l1.54 2.669-1.54 2.668h-3.081l-1.54-2.669Zm-30.171 2.665-1.54 2.668h-3.081l-1.541-2.668 1.541-2.669h3.081ZM8.272 46.124l1.541-2.669h3.08l1.541 2.669-1.54 2.668H9.813Zm22.015 32.8h-3.081l-1.54-2.668 1.54-2.669h3.081l1.54 2.668Zm30.172-2.665 1.54-2.668h3.081l1.54 2.668-1.54 2.669h-3.081ZM82.48 48.798h-3.081l-1.54-2.669 1.54-2.668h3.081l1.54 2.668Z" fill="#1d79fd"/>
  <path data-name="Path 552" d="M38.335 57.846a1.8 1.8 0 0 0 1.562.9h12.491a1.8 1.8 0 0 0 1.561-.9l6.246-10.818a1.8 1.8 0 0 0 0-1.8L53.95 34.411a1.8 1.8 0 0 0-1.562-.9H39.896a1.8 1.8 0 0 0-1.562.9l-6.245 10.817a1.8 1.8 0 0 0 0 1.8Zm2.6-20.733h10.409l5.2 9.015-5.2 9.014H40.935l-5.2-9.014Z" fill="#13acfd"/>
  <path data-name="Path 553" d="M46.146 10.79a5.409 5.409 0 1 0-5.409-5.409 5.415 5.415 0 0 0 5.409 5.409Zm0-7.212a1.8 1.8 0 1 1-1.8 1.8 1.8 1.8 0 0 1 1.8-1.8Z" fill="#13acfd"/>
  <path data-name="Path 554" d="M8.152 30.435a5.409 5.409 0 1 0-2.52-3.285 5.373 5.373 0 0 0 2.52 3.285Zm1.143-5.585a1.8 1.8 0 0 1 2.462-.66 1.812 1.812 0 0 1 .66 2.463 1.8 1.8 0 0 1-2.463.66 1.811 1.811 0 0 1-.658-2.464Z" fill="#13acfd"/>
  <path data-name="Path 555" d="M12.252 61.272a5.411 5.411 0 1 0 3.284 2.52 5.423 5.423 0 0 0-3.284-2.52Zm.342 5.691a1.8 1.8 0 1 1-.18-1.367 1.792 1.792 0 0 1 .18 1.368Z" fill="#13acfd"/>
  <path data-name="Path 556" d="M46.137 81.466a5.409 5.409 0 1 0 5.409 5.409 5.415 5.415 0 0 0-5.409-5.409Zm0 7.212a1.8 1.8 0 1 1 1.8-1.8 1.8 1.8 0 0 1-1.8 1.8Z" fill="#13acfd"/>
  <path data-name="Path 557" d="M84.131 61.821a5.409 5.409 0 1 0 1.98 7.388 5.409 5.409 0 0 0-1.98-7.388Zm-1.143 5.586a1.8 1.8 0 1 1-.66-2.463 1.8 1.8 0 0 1 .66 2.463Z" fill="#13acfd"/>
  <path data-name="Path 558" d="M80.032 30.983a5.409 5.409 0 1 0-1.3-9.909 5.375 5.375 0 0 0 1.3 9.909Zm.5-6.786a1.8 1.8 0 1 1-.66 2.464 1.79 1.79 0 0 1 .658-2.465Z" fill="#13acfd"/>
  <path data-name="Path 559" d="M29.357 38.24a1.803 1.803 0 0 0 0-3.606 1.803 1.803 0 0 0 0 3.606Z" fill="#1373fd"/>
</svg>
