<svg xmlns="http://www.w3.org/2000/svg" width="2120.688" height="782.944"><g data-name="Grupo 631" opacity=".33" fill="none" stroke="#030bd9" stroke-miterlimit="10"><path data-name="Trazado 499" d="M.347 436.623c75.113 72.306 182.877 106.97 286.893 99.834s203.5-54.183 280.716-124.243c95.894-87.011 168.161-213.633 293.423-246.428 104.382-27.327 211.635 20.372 312.962 57.453 116.468 42.625 241.927 72.475 364.167 51.516 150.7-25.837 284.865-133.195 343.119-274.565"/><path data-name="Trazado 500" d="M29.791 458.237c75.347 67.273 182.635 97 283 86.824 103.112-10.455 198.587-62.962 273.944-135.144C679.161 321.38 750.892 195.93 874.932 162.18c103.4-28.139 210.45 17.422 311.282 53.929 115.028 41.7 240.7 78.55 360.986 62.156 151.483-20.643 287.453-122.985 349.343-268.329"/><path data-name="Trazado 501" d="M59.235 479.851c75.581 62.242 182.435 86.906 279.1 73.814 102.275-13.851 193.688-71.707 267.176-146.043 88.984-90.01 160.154-214.341 282.974-249.04 102.428-28.95 209.266 14.47 309.6 50.405 113.587 40.783 239.539 84.727 357.8 72.794 152.348-15.37 290.041-112.787 355.568-262.1"/><path data-name="Trazado 502" d="M88.678 501.465c75.814 57.209 182.266 76.679 275.206 60.805 101.494-17.335 188.794-80.416 260.4-156.947 85.566-91.44 156.153-214.695 277.75-250.345 101.45-29.763 208.084 11.521 307.926 46.876 112.146 39.864 238.433 91.014 354.622 83.436 153.288-10 292.628-102.585 361.79-255.865"/><path data-name="Trazado 503" d="M118.12 523.079c76.05 52.178 182.12 66.312 271.312 47.8 100.758-20.92 183.924-89.1 253.631-167.846 82.174-92.83 152.15-215.048 272.527-251.652 100.475-30.576 206.9 8.571 306.245 43.356 110.7 38.942 237.368 97.411 351.439 94.076 154.292-4.512 295.216-92.382 368.011-249.633"/><path data-name="Trazado 504" d="M147.564 544.693c76.284 47.145 181.984 55.806 267.417 34.785 100.054-24.619 179.074-97.745 246.86-178.748 78.811-94.178 148.146-215.4 267.3-252.957 99.5-31.387 205.711 5.621 304.565 39.832 109.263 38.02 236.529 98.175 348.257 104.714 155.086 9.076 297.8-82.178 374.236-243.4"/><path data-name="Trazado 505" d="M177.008 566.308c76.518 42.114 181.849 45.154 263.522 21.775 99.366-28.445 174.249-106.361 240.088-189.647C756.1 302.947 824.761 182.68 942.695 144.172c98.521-32.2 204.528 2.669 302.884 36.307 107.823 37.1 235.336 110.555 345.077 115.356 156.434 6.843 300.388-71.974 380.457-237.168"/><path data-name="Trazado 506" d="M206.451 587.922c76.752 37.081 181.7 34.361 259.627 8.765 98.676-32.413 169.452-114.949 233.315-200.549 72.191-96.762 140.137-216.109 256.854-255.568 97.544-33.011 203.343-.281 301.206 32.783 106.38 36.181 234.341 117.3 341.893 125.994 157.544 12.739 302.977-61.771 386.68-230.934"/><path data-name="Trazado 507" d="M235.892 609.535c76.988 32.05 181.527 23.428 255.73-4.245 97.97-36.534 164.696-123.508 226.55-211.448 68.932-98.008 136.136-216.463 251.626-256.875 96.57-33.824 202.16-3.231 299.528 29.257 104.94 35.261 233.349 124.158 338.711 136.636 158.655 18.788 305.565-51.569 392.9-224.7"/><path data-name="Trazado 508" d="M265.339 631.149c77.222 27.017 181.31 12.362 251.834-17.255 97.2-40.819 159.966-132.043 219.775-222.349 65.715-99.223 132.135-216.817 246.4-258.18 95.593-34.636 200.975-6.181 297.849 25.733 103.5 34.339 232.343 131.127 335.529 147.276 159.748 25 308.151-41.365 399.126-218.468"/><path data-name="Trazado 509" d="M294.783 652.763c77.455 21.988 181.041 1.171 247.939-30.263 96.363-45.28 155.274-140.556 213-233.251 62.542-100.417 128.135-217.17 241.181-259.486 94.613-35.448 199.792-9.131 296.169 22.209 102.057 33.418 231.315 138.2 332.348 157.914 160.8 31.382 310.74-31.161 405.35-212.234"/><path data-name="Trazado 510" d="M324.226 674.376c77.689 16.954 180.7-10.133 244.044-43.273 95.418-49.922 150.625-149.053 206.232-244.153 59.4-101.591 124.129-217.525 235.953-260.79 93.639-36.259 198.607-12.082 294.491 18.684 100.614 32.5 230.252 145.366 329.166 168.556 161.8 37.932 313.324-20.958 411.57-206"/><path data-name="Trazado 511" d="M353.67 695.99c77.923 11.921 180.281-21.536 240.149-56.284 94.331-54.749 146.02-157.529 199.46-255.051 56.309-102.749 120.125-217.877 230.729-262.096 92.663-37.073 197.422-15.034 292.81 15.158 99.176 31.578 229.145 152.621 325.984 179.194 162.723 44.653 315.912-10.754 417.794-199.768"/><path data-name="Trazado 512" d="M383.114 717.606c78.157 6.89 179.764-33.021 236.254-69.294 93.072-59.764 141.451-165.993 192.687-265.951 53.257-103.898 116.124-218.234 225.506-263.404 91.686-37.886 196.24-17.984 291.132 11.633 97.733 30.658 227.984 159.956 322.8 189.836 163.552 51.541 318.5-.552 424.018-193.536"/><path data-name="Trazado 513" d="M412.556 739.218c78.393 1.857 179.145-44.567 232.358-82.3 91.607-64.96 136.933-174.45 185.917-276.854 50.247-105.038 112.121-218.586 220.282-264.709 90.71-38.698 195.049-20.934 289.449 8.109 96.3 29.736 226.764 167.355 319.623 200.471 164.268 58.589 321.087 9.653 430.238-187.3"/><path data-name="Trazado 514" d="M441.999 760.832c78.624-3.174 178.406-56.156 228.463-95.307 89.9-70.323 132.458-182.9 179.147-287.754 47.275-106.178 108.114-218.946 215.056-266.018 89.733-39.51 193.869-23.886 287.773 4.585 94.85 28.815 225.468 174.813 316.437 211.114 164.857 65.788 323.675 19.855 436.462-181.071"/><path data-name="Trazado 515" d="M471.443 782.446c78.861-8.207 177.541-67.765 224.568-108.322 87.928-75.836 128.028-191.341 172.374-298.655S972.5 156.175 1078.216 108.15c88.758-40.322 192.685-26.836 286.1 1.059s224.1 182.317 313.255 221.756c165.305 73.124 326.261 30.059 442.686-174.837"/></g></svg>