<svg xmlns="http://www.w3.org/2000/svg" width="114.493" height="59.445">
  <g fill="#fff" fill-rule="evenodd">
    <path data-name="Trazado 710" d="M.006 54.156h3.776V39.188l5.9 13.05c.668 1.569 1.629 2.15 3.488 2.15a3.193 3.193 0 0 0 3.453-2.15l5.871-13.05v14.968h3.808V39.188a2.289 2.289 0 0 0-1.8-2.529c-2.877-.872-4.8-.116-5.667 1.831l-5.783 12.9-5.581-12.9c-.843-1.946-2.791-2.7-5.7-1.831A2.292 2.292 0 0 0 0 39.188v14.968Zm29.443-12.178h3.808v8.226c-.029.464.145 1.511 2.215 1.539 1.075.029 8.2 0 8.254 0v-9.828h3.808v13.462c0 3.313-4.1 4.039-6.017 4.069H29.543v-2.531h12c2.442-.262 2.151-1.482 2.151-1.889v-.989h-8.048c-3.75-.029-6.163-1.686-6.191-3.575v-8.485Zm81.672-9.534a13.44 13.44 0 0 0-5.639.814c-.435.176-1.133.176-1.191.727.233.231.261.61.464.93a6.787 6.787 0 0 0 1.511 1.772c.611.466 1.221.93 1.86 1.337 1.133.7 2.412 1.1 3.516 1.8.64.407 1.279.93 1.918 1.367.326.233.523.611.93.756v-.088c-.2-.261-.262-.638-.464-.93-.291-.29-.582-.552-.873-.842a13.754 13.754 0 0 0-3.023-2.935c-.93-.64-2.964-1.511-3.342-2.586l-.057-.059a11.878 11.878 0 0 0 2.005-.466c.989-.261 1.889-.2 2.905-.464.466-.117.93-.262 1.4-.407v-.255c-.523-.523-.9-1.221-1.453-1.715a38.747 38.747 0 0 0-4.8-3.575c-.9-.581-2.064-.96-3.023-1.453-.35-.175-.93-.262-1.133-.552a11.634 11.634 0 0 1-1.192-2.238c-.842-1.6-1.657-3.371-2.383-5.057a31.2 31.2 0 0 0-1.475-3.317A29.3 29.3 0 0 0 86.329 4.137a13.968 13.968 0 0 0-3.713-1.192l-2.18-.117a11.472 11.472 0 0 1-1.338-1.013c-1.656-1.051-5.929-3.318-7.15-.324-.785 1.889 1.163 3.749 1.824 4.709a13.725 13.725 0 0 1 1.483 2.18c.2.494.261 1.018.464 1.541a34.8 34.8 0 0 0 1.511 3.9 14.7 14.7 0 0 0 1.075 1.8c.233.319.64.465.726.988a8.3 8.3 0 0 0-.668 2.18 12.8 12.8 0 0 0 .842 9.765c.466.726 1.563 2.326 3.053 1.715 1.308-.523 1.016-2.18 1.394-3.633.088-.349.029-.581.2-.814v.059l1.192 2.412a16.617 16.617 0 0 0 3.778 3.9c.7.523 1.249 1.425 2.121 1.744v-.088h-.057a3.234 3.234 0 0 0-.669-.581 14.156 14.156 0 0 1-1.507-1.753 37.461 37.461 0 0 1-3.255-5.29c-.466-.9-.873-1.889-1.249-2.79-.176-.349-.176-.873-.466-1.046a10.973 10.973 0 0 0-1.4 1.976 16.359 16.359 0 0 0-.813 4.389c-.117.029-.065 0-.117.059-.929-.232-1.249-1.192-1.6-2.005a12.576 12.576 0 0 1-.262-7.76c.2-.61 1.076-2.529.728-3.11-.176-.552-.756-.872-1.076-1.308a11.742 11.742 0 0 1-1.046-1.86c-.7-1.629-1.046-3.43-1.8-5.058a15.522 15.522 0 0 0-1.449-2.237 14.429 14.429 0 0 1-1.6-2.267c-.145-.319-.349-.843-.116-1.192a.463.463 0 0 1 .406-.378c.378-.319 1.454.087 1.832.261a14.891 14.891 0 0 1 2.877 1.453c.407.291.844.843 1.367.989h.611c.93.2 1.976.059 2.847.319a18.61 18.61 0 0 1 4.186 2.006 25.779 25.779 0 0 1 9.067 9.941c.349.668.494 1.279.814 1.976.611 1.425 1.367 2.877 1.976 4.273a19.162 19.162 0 0 0 2.064 3.9c.436.61 2.18.93 2.964 1.249a20.609 20.609 0 0 1 2.006.814c.988.61 1.976 1.308 2.905 1.976.464.348 1.918 1.075 2.005 1.655ZM81.482 7.187a4.618 4.618 0 0 0-1.191.145v.059h.057a9.38 9.38 0 0 0 .93 1.192l.669 1.4.057-.059a1.639 1.639 0 0 0 .611-1.453 6.475 6.475 0 0 1-.349-.61c-.175-.291-.552-.436-.786-.668Z"/>
    <path data-name="Trazado 711" d="M50.435 54.156h10.928a8.293 8.293 0 0 0 3.488-.726c1.657-.756 2.442-1.772 2.442-3.109v-2.79c0-1.075-.9-2.093-2.7-2.79a9.515 9.515 0 0 0-3.227-.552h-4.595c-1.541 0-2.267-.466-2.471-1.482a1.432 1.432 0 0 1-.029-.349v-1.716a1.313 1.313 0 0 1 .029-.319c.2-.785.61-.989 1.954-1.133h11.19v-2.53H56.806a9.837 9.837 0 0 0-3.081.32c-2.238.7-3.227 1.8-3.227 3.748v2.21c0 1.713 1.918 3.168 5.174 3.516.349.029.726.029 1.1.029h3.924a1.762 1.762 0 0 1 .406.029c1.192.116 1.715.319 2.064.754a.884.884 0 0 1 .291.7v2.205a1.292 1.292 0 0 1-.523.9 2.712 2.712 0 0 1-1.629.523c-.145 0-.231.029-.378.029H50.435Zm40.515-4.385c0 2.586 1.954 4.039 5.843 4.331.378.029.726.057 1.1.057h9.882v-2.531h-9.964c-2.21 0-3.053-.552-3.053-1.889V36.66h-3.815v13.111Zm-21.246.115v-9.015c0-2.3 1.627-3.692 4.8-4.127.349-.029.7-.059 1.016-.059h7.203c.378 0 .7.029 1.076.059 3.168.435 4.766 1.831 4.766 4.127v9.009a3.316 3.316 0 0 1-2.242 3.521l3.72 3.37h-4.384l-3.023-2.731-3.053.175h-4.068a8.9 8.9 0 0 1-2.209-.29c-2.41-.67-3.6-1.948-3.6-4.041Zm4.1-.2a3.274 3.274 0 0 0 .088.378c.2 1.046 1.191 1.627 2.7 1.627h3.431l-3.14-2.853h4.388l2.761 2.5a1.817 1.817 0 0 0 .96-1.221 1.638 1.638 0 0 0 .029-.378v-8.633a1.406 1.406 0 0 0-.029-.349c-.2-.988-1.191-1.539-2.673-1.539h-5.727c-1.686 0-2.79.726-2.79 1.888Z"/>
  </g>
</svg>
