<svg xmlns="http://www.w3.org/2000/svg" width="98.837" height="55.596">
  <defs>
    <clipPath id="a">
      <path d="M14.4-359.343c0 13.783 21.241 24.956 47.442 24.956 26.2 0 47.442-11.173 47.442-24.956s-21.241-24.956-47.442-24.956c-26.2 0-47.442 11.174-47.442 24.956" transform="translate(-14.4 384.299)" fill="#fff"/>
    </clipPath>
    <clipPath id="c">
      <path d="M0-405h98.837v55.6H0Z" transform="translate(0 405)"/>
    </clipPath>
    <radialGradient id="b" cx=".303" cy="17.393" r="1.248" gradientTransform="matrix(.526 0 0 1 .178 0)" gradientUnits="objectBoundingBox">
      <stop offset="0" stop-color="#fff"/>
      <stop offset="1" stop-color="#fff"/>
    </radialGradient>
  </defs>
  <g transform="translate(1.977 2.842)" clip-path="url(#a)">
    <path d="M14.4-359.343c0 13.783 21.241 24.956 47.442 24.956 26.2 0 47.442-11.173 47.442-24.956s-21.241-24.956-47.442-24.956c-26.2 0-47.442 11.174-47.442 24.956" transform="translate(-14.4 384.299)" fill="url(#b)"/>
  </g>
  <g clip-path="url(#c)">
    <path d="M27.753 30.663a7.566 7.566 0 0 0 4.594-1.134 6.139 6.139 0 0 0 1.986-3.836c.327-1.683.2-2.858-.37-3.492s-1.849-.976-3.757-.976h-3.311l-1.834 9.438ZM16.932 42.288a.514.514 0 0 1-.4-.187.514.514 0 0 1-.108-.426l4.861-25.01a.515.515 0 0 1 .51-.416h10.476c3.293 0 5.743.894 7.284 2.657s2.027 4.251 1.421 7.365a11.755 11.755 0 0 1-1.26 3.5 11.726 11.726 0 0 1-2.321 2.907 10.171 10.171 0 0 1-3.816 2.286 17.283 17.283 0 0 1-5.242.674h-4.242l-1.211 6.233a.515.515 0 0 1-.505.417Z"/>
    <path d="M27.321 21.74h2.884c2.3 0 3.1.505 3.375.806.451.5.536 1.554.246 3.049a5.659 5.659 0 0 1-1.795 3.525 7.1 7.1 0 0 1-4.28 1.027h-2.06Zm4.947-6.006H21.791a1.029 1.029 0 0 0-1.01.833l-4.861 25.01a1.03 1.03 0 0 0 .216.851 1.029 1.029 0 0 0 .794.375h5.448a1.03 1.03 0 0 0 1.011-.833l1.13-5.816h3.818a17.786 17.786 0 0 0 5.4-.7 10.685 10.685 0 0 0 4.007-2.4 12.246 12.246 0 0 0 2.416-3.03 12.269 12.269 0 0 0 1.316-3.655c.637-3.278.12-5.9-1.539-7.8-1.642-1.88-4.224-2.834-7.671-2.834m-7.83 15.443h3.314a8 8 0 0 0 4.908-1.241 6.592 6.592 0 0 0 2.177-4.145q.541-2.788-.493-3.934t-4.139-1.146H26.47l-2.034 10.467m7.83-14.414q4.727 0 6.9 2.481t1.3 6.928a11.2 11.2 0 0 1-1.2 3.349 11.169 11.169 0 0 1-2.217 2.777 9.623 9.623 0 0 1-3.626 2.176 16.7 16.7 0 0 1-5.083.649h-4.667l-1.292 6.649h-5.45l4.86-25.01h10.477" fill="#fff"/>
    <path d="M53.465 35.639a.514.514 0 0 1-.4-.187.514.514 0 0 1-.108-.426l2.15-11.066c.2-1.052.154-1.808-.142-2.127-.181-.2-.725-.522-2.335-.522h-3.9l-2.7 13.911a.515.515 0 0 1-.505.417H40.12a.515.515 0 0 1-.4-.187.514.514 0 0 1-.108-.426l4.861-25.01a.515.515 0 0 1 .505-.416h5.405a.515.515 0 0 1 .4.187.515.515 0 0 1 .108.426l-1.173 6.036h4.191c3.192 0 5.357.563 6.618 1.721 1.285 1.181 1.686 3.07 1.192 5.614l-2.262 11.638a.515.515 0 0 1-.505.417Z"/>
    <path d="M50.389 9.085h-5.405a1.03 1.03 0 0 0-1.011.833l-4.861 25.01a1.029 1.029 0 0 0 .216.851 1.029 1.029 0 0 0 .794.375h5.405a1.03 1.03 0 0 0 1.011-.833l2.622-13.495h3.471c1.607 0 1.944.343 1.957.358.1.1.226.59.014 1.678l-2.15 11.066a1.029 1.029 0 0 0 .216.851 1.029 1.029 0 0 0 .794.375h5.491a1.03 1.03 0 0 0 1.011-.833l2.263-11.636c.531-2.732.077-4.781-1.349-6.092-1.36-1.249-3.639-1.857-6.966-1.857h-3.566l1.054-5.423a1.03 1.03 0 0 0-.221-.853 1.03 1.03 0 0 0-.79-.375m0 1.03-1.292 6.649h4.815q4.545 0 6.27 1.585t1.035 5.137l-2.262 11.638h-5.491l2.15-11.066q.367-1.888-.27-2.575a3.8 3.8 0 0 0-2.712-.687h-4.32l-2.784 14.328h-5.405l4.861-25.009h5.405" fill="#fff"/>
    <path d="M70.276 30.663a7.566 7.566 0 0 0 4.594-1.134 6.139 6.139 0 0 0 1.986-3.836c.327-1.683.2-2.858-.37-3.492s-1.849-.976-3.757-.976h-3.311l-1.834 9.438ZM59.455 42.288a.514.514 0 0 1-.4-.187.515.515 0 0 1-.108-.426l4.861-25.01a.515.515 0 0 1 .51-.416h10.476c3.293 0 5.743.894 7.284 2.657s2.027 4.25 1.421 7.365a11.765 11.765 0 0 1-1.26 3.5 11.726 11.726 0 0 1-2.321 2.907 10.171 10.171 0 0 1-3.816 2.286 17.283 17.283 0 0 1-5.242.674h-4.242l-1.211 6.233a.515.515 0 0 1-.506.417Z"/>
    <path d="M69.845 21.74h2.884c2.3 0 3.1.505 3.375.806.451.5.536 1.554.246 3.049a5.66 5.66 0 0 1-1.795 3.526 7.1 7.1 0 0 1-4.28 1.027h-2.062Zm4.947-6.006H64.313a1.029 1.029 0 0 0-1.01.833l-4.861 25.01a1.03 1.03 0 0 0 .216.851 1.029 1.029 0 0 0 .794.375H64.9a1.03 1.03 0 0 0 1.011-.833l1.13-5.816h3.818a17.786 17.786 0 0 0 5.4-.7 10.685 10.685 0 0 0 4.008-2.4 12.239 12.239 0 0 0 2.416-3.029 12.269 12.269 0 0 0 1.316-3.655c.637-3.278.12-5.9-1.539-7.8-1.642-1.88-4.223-2.833-7.671-2.833m-7.83 15.443h3.314a8 8 0 0 0 4.908-1.241 6.591 6.591 0 0 0 2.177-4.145q.541-2.788-.493-3.934t-4.139-1.146h-3.733l-2.034 10.467m7.83-14.414q4.727 0 6.9 2.481t1.3 6.928a11.2 11.2 0 0 1-1.2 3.349 11.169 11.169 0 0 1-2.217 2.777 9.623 9.623 0 0 1-3.626 2.176 16.7 16.7 0 0 1-5.083.649h-4.667l-1.292 6.649h-5.448l4.857-25.012h10.476" fill="#fff"/>
  </g>
</svg>
