<svg xmlns="http://www.w3.org/2000/svg" width="125.239" height="41.903">
  <path d="M67.939 34.246H61.35q-2.191-3.433-3.967-5.934-1.759-2.5-3.829-5.157h-2.5v7.763a2.817 2.817 0 0 0 .19 1.069 1.341 1.341 0 0 0 .811.69 5.329 5.329 0 0 0 1.087.224q.776.1 1.311.121v1.225H44.101v-1.229q.414-.034 1.19-.121a4.158 4.158 0 0 0 1.1-.224 1.444 1.444 0 0 0 .742-.655 2.242 2.242 0 0 0 .245-1.1v-17.7a3.069 3.069 0 0 0-.172-1.069 1.268 1.268 0 0 0-.811-.707 6.936 6.936 0 0 0-1.121-.276 9.66 9.66 0 0 0-1.173-.172V9.77h11.3a12.443 12.443 0 0 1 2.915.328 7.706 7.706 0 0 1 2.465 1.02 5.159 5.159 0 0 1 1.708 1.811 5.259 5.259 0 0 1 .638 2.674 6.746 6.746 0 0 1-.431 2.5 5.154 5.154 0 0 1-1.276 1.88 7.759 7.759 0 0 1-1.863 1.294 14.649 14.649 0 0 1-2.4.914q1.811 2.4 3 4.036 1.207 1.639 2.95 3.984a8.715 8.715 0 0 0 1.363 1.535 7.867 7.867 0 0 0 1.225.793 4.168 4.168 0 0 0 1.121.345 8.385 8.385 0 0 0 1.121.138v1.225m-9.071-18.251a4.477 4.477 0 0 0-4.881-4.83h-2.933v10.5h2.256a5.328 5.328 0 0 0 5.554-5.675M86.653 33.935l-5.537.379-.259-.241v-2.157h-.1q-.414.431-.931.931a6.793 6.793 0 0 1-1.19.88 7.621 7.621 0 0 1-1.5.707 6.79 6.79 0 0 1-2.053.241 4.185 4.185 0 0 1-3.45-1.466 6.8 6.8 0 0 1-1.173-4.295v-8.14a2.027 2.027 0 0 0-.241-1.035 1.954 1.954 0 0 0-1.453-1.038 6.536 6.536 0 0 0-.983-.138v-1.118l5.675-.414.259.241v11.816a4.068 4.068 0 0 0 .828 2.777 2.566 2.566 0 0 0 1.984.931 4.57 4.57 0 0 0 1.69-.293 4.869 4.869 0 0 0 1.242-.69 5.735 5.735 0 0 0 .811-.759 4.435 4.435 0 0 0 .552-.759v-9.642a2.013 2.013 0 0 0-.241-1 2.232 2.232 0 0 0-.673-.759 1.889 1.889 0 0 0-.931-.241q-.6-.052-1.363-.086v-1.122l6.175-.414.259.241v13.506a1.953 1.953 0 0 0 .241 1 2.184 2.184 0 0 0 .673.707 2.021 2.021 0 0 0 .742.259q.431.052.949.069v1.121M106.041 25.724a9.107 9.107 0 0 1-2.415 6.434 7.434 7.434 0 0 1-5.606 2.6 9.1 9.1 0 0 1-2.76-.431 11.762 11.762 0 0 1-2.536-1.156l-1.276 1.984-1.069-.241q.086-1.276.121-3.07t.034-3.467V11.546a2.734 2.734 0 0 0-.276-1.173 1.824 1.824 0 0 0-.673-.845 2.677 2.677 0 0 0-1.1-.328q-.759-.121-1.225-.155v-1.1l6.244-.4.241.259v11.21l.121.034a7.363 7.363 0 0 1 2.329-1.708 6.114 6.114 0 0 1 2.5-.569 6.6 6.6 0 0 1 5.244 2.484 9.663 9.663 0 0 1 2.1 6.468m-3.605.121a12.78 12.78 0 0 0-.276-2.6 7.434 7.434 0 0 0-.862-2.311 4.824 4.824 0 0 0-1.534-1.625 4.065 4.065 0 0 0-2.277-.621 4.477 4.477 0 0 0-2.122.483 5.682 5.682 0 0 0-1.621 1.276v9.9a4.4 4.4 0 0 0 .4.966 4.471 4.471 0 0 0 2 1.846 4.014 4.014 0 0 0 5-1.742 10.323 10.323 0 0 0 1.294-5.571M107.282 39.8a2.118 2.118 0 0 1 .466-1.414 1.541 1.541 0 0 1 1.19-.535 2.027 2.027 0 0 1 .949.207 2.668 2.668 0 0 1 .707.535 4.465 4.465 0 0 1 .552.707q.293.448.466.742a6.836 6.836 0 0 0 2.053-2.432 19.383 19.383 0 0 0 1.742-3.45q-1.639-4.088-2.967-7.313t-2.777-6.675a2.433 2.433 0 0 0-1.1-1.225 4.477 4.477 0 0 0-1.552-.569v-1.14h7.762v1.207a5.284 5.284 0 0 0-1.242.224q-.724.19-.724.535l.086.259a5.192 5.192 0 0 1 .172.5q.655 1.708 2 4.933 1.345 3.208 2.087 5.14l1.6-3.812q.845-1.984 1.88-4.674.121-.328.345-.9a2.893 2.893 0 0 0 .224-1q0-.448-.793-.828a4.467 4.467 0 0 0-1.483-.483v-1.1h6.313v1.069a4.174 4.174 0 0 0-1.363.6 3.062 3.062 0 0 0-1.259 1.432q-2.053 4.761-3.657 8.676-1.587 3.915-2.415 5.761a30.173 30.173 0 0 1-1.949 3.76 10.983 10.983 0 0 1-1.656 2.139 4.647 4.647 0 0 1-1.449.966 3.5 3.5 0 0 1-1.328.259 3.243 3.243 0 0 1-2.122-.638 1.881 1.881 0 0 1-.759-1.466" fill="#f8f8f8"/>
  <path d="M30.693 26.077 8.074 39.508 37.36 37.52l2.257-29.531Z" fill="#fff" fill-rule="evenodd"/>
  <path d="m37.409 37.496-2.517-17.369-6.853 9.054ZM37.443 37.5l-18.442-1.447L8.169 39.47Z" fill="#afafaf" fill-rule="evenodd"/>
  <path data-name="Unión 1" d="M2.715 26.656 0 31.607l.53-11.083-.142-.4c1.577-2.967 4.869-9.187 5.057-9.283s5.458-5.091 8.173-7.617l8.618-3.225.148.1 10.907.05-6.079 3.36.092.065v.009l11.353 9.271-14.558.951 3.937 15.419-15.285-4.887-.068.063-.165.037.29-.062-4.607 15.092Z" fill="#fff"/>
  <path d="M8.462 8.409c5.885-5.834 13.467-9.281 16.382-6.344s-.176 10.076-6.061 15.908-13.376 9.47-16.286 6.533.08-10.264 5.965-16.1ZM8.198 39.468l4.574-15.141 15.18 4.877c-5.491 5.147-11.596 9.498-19.754 10.264ZM24.106 13.776l3.9 15.436c4.585-4.821 8.7-10 10.715-16.414l-14.612.978Z" fill="#d8d8d8" fill-rule="evenodd"/>
  <path d="M38.679 12.876c1.559-4.707 1.919-11.46-5.435-12.713l-6.035 3.333ZM0 31.544c.216 7.768 5.821 7.884 8.208 7.952L2.693 26.617Z" fill="#d8d8d8" fill-rule="evenodd"/>
  <path d="M24.128 13.8a3724.27 3724.27 0 0 0 10.768 6.594c.224.126 3.061-4.785 3.705-7.56l-14.473.966ZM12.763 24.327l6.111 11.789a39.51 39.51 0 0 0 9.034-6.9ZM2.693 26.633 1.804 37.16c1.677 2.278 3.984 2.476 6.4 2.3-1.747-4.336-5.245-13.003-5.511-12.827ZM27.174 3.522l12.139 1.7C38.665 2.48 36.675.708 33.284.154Z" fill="#afafaf" fill-rule="evenodd"/>
</svg>
