<svg xmlns="http://www.w3.org/2000/svg" width="179.614" height="48.62">
  <path data-name="Trazado 702" d="M52.831 36.048V13.961h2.838l13.5 17.786V13.961h2.7v22.087h-2.834L55.516 18.087v17.961h-2.7Zm41.044-.877a16.41 16.41 0 0 1-5.752 1.017q-12 0-12-11.506c0-7.261 3.858-10.91 11.593-10.91a20.407 20.407 0 0 1 6.172.914v2.456a16.093 16.093 0 0 0-5.858-1.087c-6.033 0-9.051 2.877-9.051 8.559 0 6.139 2.982 9.193 8.91 9.193a15.494 15.494 0 0 0 3.158-.385v-7.4h2.841v9.155Zm4.56-7.648V13.948h2.841v13.575q0 6.368 6.368 6.368c4.209 0 6.368-2.123 6.368-6.368V13.948h2.841v13.575c0 5.788-3.053 8.7-9.193 8.7s-9.191-2.912-9.191-8.7Zm26.311-13.562v19.805h11.593v2.315h-14.417v-22.12h2.841Zm15.681 22.1h-2.981l10.976-24.995 10.981 25.011h-3.158l-2.841-6.946h-7.3l.772-2.315h5.578l-4.139-10-7.895 19.259Zm22.03 0v-22.1h9.438c4.209 0 6.314 1.754 6.314 5.3 0 2.877-2.07 5.016-6.172 6.368l7.576 10.417h-3.755l-7.016-9.927v-1.827c4.209-.666 6.368-2.279 6.368-4.876 0-2.034-1.143-3.053-3.507-3.053h-6.314v19.685h-2.911Z" fill="#fff"/>
  <path data-name="Sustracción 2" d="M22.626 48.62 3.474 38.007 0 8.068 22.626.002l23.223 7.927-3.756 29.923-19.467 10.767Zm-5.963-18.783h12.594l3.1 7.157 5.016.1-14.7-31.432-.014.016-14.1 31.346 5.262-.1 2.841-7.086Zm10.8-4.123h-8.947l4.177-9.959 4.77 9.958Z" fill="#fff"/>
  <path data-name="Sustracción 1" d="M22.625 48.62V29.837h6.631l3.1 7.156 5.016.1-14.7-31.431-.014.016-.037.083V-.005l23.224 7.927-3.754 29.923-19.468 10.769Zm4.842-22.907h-4.842v-9.792l.07-.168 4.771 9.958Z" fill="#c9c9c9"/>
</svg>
