<svg xmlns="http://www.w3.org/2000/svg" width="212.105" height="56.038">
  <path data-name="Trazado 690" d="M208.904 44.121a3.2 3.2 0 1 1 3.2-3.243 3.159 3.159 0 0 1-3.2 3.243m0-6.109a2.912 2.912 0 1 0 2.892 2.919 2.863 2.863 0 0 0-2.892-2.919m.771 4.933-.825-1.78h-.665v1.78h-.484v-4.049h1.193c.889 0 1.259.386 1.259 1.132a.984.984 0 0 1-.8 1.078l.852 1.834Zm-1.471-2.2h.7c.567 0 .783-.193.783-.71s-.206-.692-.845-.692h-.638Z" fill="#fff"/>
  <path data-name="Trazado 692" d="M189.024 20.629c-.164.041-.37.449-.37.652-.042 1.467-.083 5.3-.083 7.943a.262.262 0 0 0 .206.2c.534.04 1.853.083 2.966.083a7.045 7.045 0 0 0 2.966-.449 3.841 3.841 0 0 0 1.928-3.625c0-3.544-2.472-4.888-6.138-4.888a11.059 11.059 0 0 0-1.483.081m9.352 16.294c0-3.585-2.638-5.621-7.458-5.621a18.829 18.829 0 0 0-2.1.04c-.123.04-.247.121-.247.2 0 2.567-.042 6.68.083 8.309a2.749 2.749 0 0 0 1.194 1.955 8.286 8.286 0 0 0 3.172.447c2.842 0 5.357-1.587 5.357-5.336m-16.788-18.285c.372 0 1.467.121 4.269.121 2.636 0 4.778-.081 7.327-.081 3.172 0 7.538 1.142 7.538 5.866a5.716 5.716 0 0 1-3.789 5.093c-.123.04-.123.121 0 .162 3.049.771 5.725 2.648 5.725 6.232 0 3.5-2.183 5.7-5.355 7.088a17 17 0 0 1-6.749 1.14c-1.853 0-6.82-.193-9.582-.162-.289-.121.264-1.427.511-1.629a7.6 7.6 0 0 0 1.868-.293c.987-.243 1.1-.561 1.228-2.029.083-1.263.083-5.785.083-9 0-4.4.042-7.372 0-8.839-.04-1.14-.453-1.508-1.236-1.71-.617-.123-1.647-.245-2.47-.366-.206-.2.428-1.427.632-1.589" fill="#fff"/>
  <path data-name="Trazado 691" d="M161.296 41.206a7.344 7.344 0 0 0 4.121.978 8.021 8.021 0 0 0 5.808-2.077c1.928-1.753 3.255-4.435 3.255-8.718 0-4.115-1.566-7.455-4.778-9.41a12.782 12.782 0 0 0-6.84-1.589 5.678 5.678 0 0 0-2.017.245 1.059 1.059 0 0 0-.372.578c-.081.733-.081 6.313-.081 9.612 0 3.382 0 8.1.081 8.677a2.5 2.5 0 0 0 .823 1.71m-8.222-22.655c.7 0 3.361.121 4.6.121 2.314 0 3.912-.121 8.238-.121a13.336 13.336 0 0 1 8.857 2.85 11.86 11.86 0 0 1 4.049 9.329c0 5.5-2.507 8.677-5.027 10.469-2.507 1.874-5.767 2.933-10.413 2.933-2.472 0-6.716-.081-10.258-.121h-.073c-.166-.326.3-1.6.592-1.629a5.24 5.24 0 0 0 1.662-.33c.748-.307.924-.688 1.007-2.032.123-2.526.083-5.54.083-8.963 0-2.443.04-7.21-.041-8.718-.125-1.261-.658-1.587-1.735-1.832a22.416 22.416 0 0 0-2.314-.366c-.081-.245.552-1.35.758-1.589" fill="#fff"/>
  <path data-name="Trazado 695" d="M137.855 28.886a3.5 3.5 0 0 0-1.971.553c-1.431.87-2.16 2.607-2.16 5.16 0 4.778 2.393 8.116 5.82 8.116a3.664 3.664 0 0 0 2.518-.889c1.053-.858 1.61-2.613 1.61-5.069 0-4.707-2.337-7.871-5.818-7.871m.659 15.6c-6.19 0-8.394-4.541-8.394-8.787a7.855 7.855 0 0 1 3.608-6.9 10.992 10.992 0 0 1 5.569-1.647c4.722 0 8.022 3.4 8.022 8.259a8.54 8.54 0 0 1-3.81 7.547 10.786 10.786 0 0 1-4.994 1.527" fill="#fff"/>
  <path data-name="Trazado 696" d="M116.846 28.724c-1.907 0-3.141 1.506-3.141 3.837s1.063 5.1 4.049 5.1a2.906 2.906 0 0 0 1.9-.735 4.763 4.763 0 0 0 1.157-3.349c0-3.041-1.481-4.855-3.959-4.855m-.247 16.089a3.141 3.141 0 0 0-1.543.386c-1.51.964-2.21 1.928-2.21 3.049a3.255 3.255 0 0 0 1.282 2.624 6.5 6.5 0 0 0 4.371 1.336c3.7 0 5.359-1.99 5.359-3.961a2.808 2.808 0 0 0-2.106-2.813 16.521 16.521 0 0 0-5.148-.619m.247 9.449a7.989 7.989 0 0 1-5.189-1.521 4.862 4.862 0 0 1-1.928-3.6 2.817 2.817 0 0 1 .729-1.832 19.166 19.166 0 0 1 3.355-2.688.177.177 0 0 0 .108-.164.172.172 0 0 0-.131-.17 3.544 3.544 0 0 1-2.378-2.314.2.2 0 0 0-.017-.091.535.535 0 0 1 .216-.665c.239-.17.621-.4 1.03-.638a13.858 13.858 0 0 0 1.656-1.078.272.272 0 0 0-.069-.424c-2.526-.848-3.8-2.725-3.8-5.592a5.559 5.559 0 0 1 2.333-4.576 10.643 10.643 0 0 1 5.22-1.77h.1a10.762 10.762 0 0 1 3.984.887 6.332 6.332 0 0 0 2.356.374 3.175 3.175 0 0 0 2.549-.964 2.21 2.21 0 0 1 .135.729 2.742 2.742 0 0 1-.462 1.674 2.08 2.08 0 0 1-1.583.688 1.317 1.317 0 0 1-.193-.01 5.2 5.2 0 0 1-.964-.16l-.158.056c-.05.073-.017.154.023.258a.328.328 0 0 1 .023.064 11.283 11.283 0 0 1 .229 1.562 5.835 5.835 0 0 1-2.46 5.272 8.4 8.4 0 0 1-4.242 1.643c-.033 0-.193.014-.494.041-.193.017-.443.04-.48.04h-.037c-.278.077-1 .422-1 1.064 0 .532.328 1.194 1.9 1.313l1.014.071a31.2 31.2 0 0 1 5.864.735 4.061 4.061 0 0 1 2.713 3.909c0 2.69-1.913 5.22-5.116 6.766a11.119 11.119 0 0 1-4.838 1.086" fill="#fff"/>
  <path data-name="Trazado 697" d="M107.894 42.687a7.358 7.358 0 0 1-2.349-.611 1.079 1.079 0 0 1-.289-.578c-.083-1.263-.083-4.929-.083-7.327a8.754 8.754 0 0 0-1.157-4.888 4.958 4.958 0 0 0-4.2-2.2c-1.606 0-3.748 1.1-5.519 2.607-.042.04-.314.3-.309-.1s.067-1.215.106-1.735a.893.893 0 0 0-.27-.756 24.555 24.555 0 0 1-5.6 1.467c-.875.17-1.1 1.012-.162 1.3h.013a7.993 7.993 0 0 1 2.121.933 1.112 1.112 0 0 1 .33 1.018c.041 2.729.041 6.924-.083 9.206-.041.9-.289 1.223-.949 1.386l.062-.021a12.816 12.816 0 0 1-1.525.285 2.221 2.221 0 0 0 0 1.629c.413 0 2.507-.121 4.242-.121 2.387 0 3.623.121 4.242.121a2.273 2.273 0 0 0 .166-1.629 8.677 8.677 0 0 1-1.691-.245c-.658-.162-.823-.49-.864-1.221-.081-1.917-.081-5.989-.081-8.76a1.631 1.631 0 0 1 .451-1.35 5.428 5.428 0 0 1 3.378-1.221 3.686 3.686 0 0 1 2.507.854 3.491 3.491 0 0 1 1.18 2.3c.164 1.543.121 4.645.121 7.327 0 1.467-.122 1.836-.658 2a6.654 6.654 0 0 1-1.689.326 2.222 2.222 0 0 0 0 1.629c1.07 0 2.314-.121 4.119-.121 2.266 0 3.708.121 4.285.121a2.267 2.267 0 0 0 .166-1.629" fill="#fff"/>
  <path data-name="Trazado 694" d="M74.749 28.886a3.513 3.513 0 0 0-1.967.553c-1.431.87-2.16 2.607-2.16 5.16 0 4.778 2.393 8.116 5.82 8.116a3.664 3.664 0 0 0 2.511-.889c1.053-.858 1.612-2.613 1.612-5.069 0-4.707-2.339-7.871-5.82-7.871m.66 15.6c-6.19 0-8.394-4.541-8.394-8.789a7.859 7.859 0 0 1 3.606-6.9 11.012 11.012 0 0 1 5.571-1.647c4.722 0 8.022 3.4 8.022 8.261a8.547 8.547 0 0 1-3.81 7.547 10.807 10.807 0 0 1-4.994 1.525" fill="#fff"/>
  <path data-name="Trazado 693" d="M33.538 44.121a1.786 1.786 0 0 1-.125-.823 1.047 1.047 0 0 1 .125-.55 14 14 0 0 0 1.581-.322c.729-.181 1-.578 1.045-1.508.12-2.2.127-6.317.085-9.213v-.085a1.174 1.174 0 0 0-.386-1.035 8.281 8.281 0 0 0-2.185-.964c-.345-.1-.536-.283-.526-.5s.228-.463.677-.551a25.986 25.986 0 0 0 5.55-1.435.814.814 0 0 1 .164.578c0 .127-.019.262-.033.4-.035.409-.073.874-.073 1.336a.3.3 0 0 0 .517.175 10.231 10.231 0 0 1 5.509-2.487 4.738 4.738 0 0 1 4.211 2.584.283.283 0 0 0 .239.141.274.274 0 0 0 .224-.12c2.15-1.631 4.281-2.605 5.708-2.605 3.371 0 5.386 2.524 5.386 6.749 0 1.215-.012 2.755-.023 4.192a472.86 472.86 0 0 0-.019 3.261 1.127 1.127 0 0 0 .665.858 8.524 8.524 0 0 0 2.106.519h.035a3.133 3.133 0 0 1-.212 1.379c-.224 0-.532-.019-.918-.039-.7-.035-1.66-.083-2.777-.083-2.241 0-3.411.042-4.53.116a3.39 3.39 0 0 1-.012-1.371 11.869 11.869 0 0 0 1.373-.3c.713-.235.92-.559.964-1.506.017-.673.147-6.6-.083-8.01a3.584 3.584 0 0 0-3.716-3.168 6.541 6.541 0 0 0-3.706 1.413.54.54 0 0 0-.135.349v.029a15.162 15.162 0 0 1 .162 2.987c0 .771 0 1.575-.01 2.38-.01 1.635-.017 3.178.01 4.344a1.094 1.094 0 0 0 .868 1.138c.21.046.376.087.544.125.322.079.658.16 1.157.239a2.216 2.216 0 0 1-.019 1.026.821.821 0 0 1-.145.349 119.234 119.234 0 0 0-4.369-.079c-.559 0-1.471.023-2.277.044-.654.017-1.271.035-1.622.037a1.589 1.589 0 0 1-.123-.71 1.23 1.23 0 0 1 .129-.663l.5-.091c.432-.077.806-.143 1.157-.231.609-.193.839-.524.883-1.3a61.227 61.227 0 0 0-.044-8.344c-.436-2.1-1.629-3.162-3.55-3.162a6.679 6.679 0 0 0-3.706 1.412 1.13 1.13 0 0 0-.341.839v2.158c0 2.622-.017 5.887.046 7.3a1.156 1.156 0 0 0 1.008 1.142c.179.052.488.1.847.162.206.035.432.071.665.114a2.923 2.923 0 0 1-.11 1.379c-.359 0-.8-.023-1.305-.044a60.524 60.524 0 0 0-2.825-.077c-1.288 0-2.185.042-2.9.077-.484.023-.9.042-1.321.044" fill="#fff"/>
  <g data-name="Grupo 637">
    <path data-name="Trazado 687" d="M24.704 22.3C21.752 9.277 15.599 5.81 14.03 3.359A27.877 27.877 0 0 1 12.313 0a3.419 3.419 0 0 1-1.219 2.763C9.12 4.524.734 11.358.028 26.155c-.658 13.8 10.143 22.3 11.57 23.184a3.17 3.17 0 0 0 3.081-.484c5.206-3.573 12.32-13.1 10.027-26.554" fill="#fff"/>
    <path data-name="Trazado 688" d="M12.761 41.992a28.365 28.365 0 0 1-1.157 7.351s.453 3.251.771 6.695h1.129a62.622 62.622 0 0 1 1.228-7.21c-1.46-.718-1.915-3.839-1.971-6.836Z" fill="#fff"/>
    <path data-name="Trazado 689" d="M14.727 48.83c-1.473-.681-1.9-3.868-1.965-6.838a139.964 139.964 0 0 0 .314-14.722c-.077-2.576.037-23.86-.634-26.977a25.9 25.9 0 0 0 1.583 3.064C15.595 5.81 21.75 9.277 24.7 22.3c2.303 13.433-4.772 22.933-9.973 26.53Z" fill="#c9c9c9"/>
  </g>
</svg>
