<svg xmlns="http://www.w3.org/2000/svg" width="157.866" height="52.69">
  <g data-name="Grupo 606" transform="translate(.831 .936)">
    <circle data-name="Elipse 162" cx="5.357" cy="5.357" r="5.357" transform="translate(23.36 19.998)" fill="#fff" stroke="#707070" stroke-width=".069"/>
    <g data-name="Grupo 605" fill="rgba(0,0,0,0)" stroke="#fff" stroke-width="1.663" fill-rule="evenodd">
      <path data-name="Trazado 706" d="M28.717 14.467a60.109 60.109 0 0 1 18.914 2.767c6.07 2.09 9.8 5.258 9.8 8.126 0 2.989-3.956 6.354-10.474 8.514a60.357 60.357 0 0 1-18.24 2.482c-7 0-13.63-.8-18.614-2.5-6.306-2.155-10.1-5.564-10.1-8.5 0-2.845 3.564-5.988 9.549-8.075a60.635 60.635 0 0 1 19.164-2.814Z"/>
      <path data-name="Trazado 707" d="M19.235 19.94a60.111 60.111 0 0 1 11.845-15C35.923.724 40.529-.927 43.017.506c2.589 1.493 3.529 6.6 2.143 13.327a60.323 60.323 0 0 1-6.96 17.044c-3.5 6.064-7.5 11.408-11.467 14.873-5.017 4.386-9.868 5.973-12.408 4.508-2.465-1.42-3.407-6.079-2.225-12.306a60.658 60.658 0 0 1 7.129-18.012Z"/>
      <path data-name="Trazado 708" d="M19.243 30.893a60.127 60.127 0 0 1-7.081-17.754C10.934 6.838 11.801 2.021 14.283.584c2.587-1.5 7.481.24 12.616 4.8a60.353 60.353 0 0 1 11.29 14.542c3.507 6.059 6.136 12.2 7.159 17.362 1.294 6.537.247 11.532-2.291 13-2.462 1.425-6.968-.084-11.773-4.218a60.639 60.639 0 0 1-12.041-15.177Z"/>
    </g>
  </g>
  <path data-name="Trazado 709" d="m89.018 39.981-6.567-9.921a6.726 6.726 0 0 0 6.309-7.091c0-4.47-3.172-7.331-7.622-7.331h-9.773v24.323h3.032v-9.665h4.851l6.2 9.665Zm-8.242-12.328h-6.379v-9.3h6.382a4.655 4.655 0 1 1 0 9.3Zm19.511 12.763a9.572 9.572 0 0 0 7-2.7l-1.31-1.786a7.7 7.7 0 0 1-5.434 2.224 6.207 6.207 0 0 1-6.346-6.088h14.258v-.694c0-5.287-3.137-9.446-8.463-9.446-5.033 0-8.678 4.122-8.678 9.227 0 5.508 3.757 9.249 8.971 9.249Zm5.472-10.359H94.197c.146-2.7 2-5.873 5.762-5.873a5.71 5.71 0 0 1 5.8 5.873Zm20.862 9.924V27.87c0-4.267-3.1-5.945-6.819-5.945a9.215 9.215 0 0 0-7.038 2.918l1.276 1.9a7 7 0 0 1 5.4-2.443c2.553 0 4.45 1.349 4.45 3.72v3.172a7.365 7.365 0 0 0-5.837-2.411c-2.99 0-6.166 1.861-6.166 5.8 0 3.829 3.172 5.836 6.166 5.836a7.62 7.62 0 0 0 5.836-2.443v2Zm-7.584-1.532c-2.553 0-4.341-1.6-4.341-3.829 0-2.261 1.788-3.866 4.341-3.866a5.9 5.9 0 0 1 4.851 2.189v3.319a5.9 5.9 0 0 1-4.851 2.189Zm20.81 1.97a7.544 7.544 0 0 0 6.456-3.063l-1.824-1.677a5.3 5.3 0 0 1-4.47 2.3c-3.757 0-6.089-2.918-6.089-6.819s2.334-6.782 6.089-6.782a5.181 5.181 0 0 1 4.47 2.3l1.824-1.677a7.538 7.538 0 0 0-6.456-3.063c-5.252 0-8.789 4.012-8.789 9.227 0 5.252 3.538 9.249 8.789 9.249Zm14.736 0a4.483 4.483 0 0 0 3.283-1.13l-.8-2.042a2.615 2.615 0 0 1-1.861.729c-1.2 0-1.788-.948-1.788-2.261V24.77h3.58v-2.406h-3.58V17.55h-2.736v4.814h-2.918v2.408h2.918v11.525c0 2.627 1.313 4.122 3.9 4.122Z" fill="#fff" fill-rule="evenodd"/>
</svg>
